<svg xmlns="http://www.w3.org/2000/svg" width="400" height="400" fill="none" viewBox="0 0 400 400"><g clip-path="url(#clip0)"><rect width="400" height="400" fill="#fff"/><g opacity=".5"><path fill="url(#paint0_linear)" d="M293.971 233.55C293.971 233.55 312.16 214.181 318.213 208.202C324.266 202.224 352.261 174.573 335.565 134.714C318.886 94.8685 286.004 95.8539 252.615 95.8539C248.878 41.0617 196.822 35.0841 191.099 34.8304C185.36 34.5767 114.128 34.5767 102.41 34.8304C90.7059 35.0841 81.7385 34.3377 78.0022 38.313C74.2659 42.3029 72.0246 50.524 78.0022 56.5016C83.9798 62.4792 152.478 118.527 152.478 118.527H227.715C222.723 130.738 194.579 157.387 185.612 166.608C176.644 175.814 177.39 181.792 181.127 186.038C184.863 190.267 197.567 203.719 211.765 219.157C225.964 234.611 234.678 245.82 230.702 270.227C226.712 294.635 195.325 300.612 186.358 300.612C177.39 300.612 144.764 300.612 144.764 300.612C144.764 300.612 145.003 216.915 144.764 202.807C144.435 184.467 145.825 180.06 143.016 177.817C138.621 174.29 83.9798 127.748 75.7588 123.264C67.5377 118.779 60.8137 127 60.8137 134.967C60.8137 142.932 60.321 297.876 60.8137 307.592C61.3064 317.306 70.2739 322.537 74.31 322.537C78.346 322.537 124.588 322.537 124.588 322.537C124.588 322.537 124.081 352.922 124.588 359.902C125.081 366.882 137.038 370.857 141.521 370.857C146.003 370.857 270.548 371.111 280.263 370.857C289.977 370.618 306.419 367.867 325.354 348.557C344.291 329.246 342.048 299.371 335.817 283.422C329.588 267.493 293.971 233.55 293.971 233.55ZM124.829 300.612H82.2333V156.64L124.829 191.508V300.612ZM160.028 94.6148L114.623 57.6233C114.623 57.6233 189.172 57.6233 193.656 57.6233C198.141 57.6233 228.212 64.5423 229.885 94.6148C220.917 94.6148 160.028 94.6148 160.028 94.6148ZM303.687 338.979C292.852 348.993 276.963 348.693 260.523 348.515C244.083 348.32 145.829 348.515 145.829 348.515V322.539C145.829 322.539 183.748 322.539 192.342 322.539C200.936 322.539 223.907 318.623 239.42 297.132C254.934 275.639 256.982 254.536 249.883 235.106C242.783 215.676 204.477 179.238 204.477 179.238C204.477 179.238 232.875 149.914 240.542 139.079C248.21 128.243 250.631 118.527 250.631 118.527C250.631 118.527 280.897 118.527 287.428 118.527C293.974 118.527 315.825 133.099 317.888 152.724C319.951 172.332 311.911 179.238 305.558 187.099C299.205 194.93 270.061 225.21 268.566 228.558C267.071 231.936 267.071 237.914 272.871 244.071C278.655 250.229 309.847 280.314 314.718 291.898C319.559 303.483 318.932 324.9 303.687 338.979Z" opacity=".5"/></g><path fill="url(#paint1_linear)" d="M291.25 230.829C291.25 230.829 309.438 211.46 315.492 205.48C321.545 199.503 349.539 171.852 332.844 131.992C316.165 92.1473 283.283 93.1327 249.893 93.1327C246.157 38.3405 194.101 32.3629 188.377 32.1092C182.638 31.8555 111.406 31.8555 99.6879 32.1092C87.9843 32.3629 79.0169 31.6165 75.2806 35.5918C71.5444 39.5817 69.303 47.8028 75.2806 53.7804C81.2582 59.758 149.756 115.806 149.756 115.806H224.993C220.001 128.017 191.857 154.666 182.89 163.887C173.922 173.093 174.669 179.071 178.405 183.317C182.141 187.546 194.845 200.998 209.044 216.436C223.242 231.89 231.956 243.099 227.981 267.506C223.991 291.913 192.604 297.891 183.636 297.891C174.669 297.891 142.043 297.891 142.043 297.891C142.043 297.891 142.282 214.194 142.043 200.086C141.713 181.746 143.104 177.339 140.294 175.096C135.899 171.569 81.2582 125.027 73.0372 120.542C64.8162 116.058 58.0922 124.279 58.0922 132.246C58.0922 140.211 57.5994 295.155 58.0922 304.871C58.5849 314.585 67.5523 319.816 71.5884 319.816C75.6245 319.816 121.866 319.816 121.866 319.816C121.866 319.816 121.359 350.201 121.866 357.181C122.359 364.16 134.316 368.136 138.799 368.136C143.282 368.136 267.826 368.389 277.542 368.136C287.256 367.897 303.698 365.146 322.633 345.836C341.57 326.525 339.326 296.65 333.095 280.701C326.866 264.77 291.25 230.829 291.25 230.829ZM122.108 297.891H79.5117V153.917L122.108 188.785V297.891ZM157.304 91.8915L111.899 54.9C111.899 54.9 186.448 54.9 190.933 54.9C195.418 54.9 225.488 61.819 227.161 91.8915C218.194 91.8915 157.304 91.8915 157.304 91.8915ZM300.964 336.256C290.128 346.27 274.24 345.97 257.8 345.792C241.36 345.597 143.106 345.792 143.106 345.792V319.816C143.106 319.816 181.024 319.816 189.618 319.816C198.212 319.816 221.183 315.899 236.697 294.409C252.21 272.918 254.258 251.813 247.159 232.383C240.06 212.953 201.754 176.515 201.754 176.515C201.754 176.515 230.151 147.191 237.818 136.355C245.486 125.52 247.908 115.804 247.908 115.804C247.908 115.804 278.173 115.804 284.704 115.804C291.25 115.804 313.101 130.376 315.164 150.001C317.228 169.609 309.187 176.515 302.834 184.375C296.481 192.206 267.337 222.487 265.842 225.835C264.348 229.213 264.348 235.19 270.147 241.348C275.932 247.506 307.124 277.591 311.994 289.175C316.838 300.761 316.209 322.177 300.964 336.256Z"/></g><defs><linearGradient id="paint0_linear" x1="336.386" x2="48.133" y1="28.337" y2="381.928" gradientUnits="userSpaceOnUse"><stop stop-color="#212E59"/><stop offset=".081" stop-color="#26315F"/><stop offset=".685" stop-color="#4B4486"/><stop offset="1" stop-color="#594B95"/></linearGradient><linearGradient id="paint1_linear" x1="333.664" x2="45.41" y1="25.615" y2="379.206" gradientUnits="userSpaceOnUse"><stop stop-color="#212E59"/><stop offset=".081" stop-color="#26315F"/><stop offset=".685" stop-color="#4B4486"/><stop offset="1" stop-color="#594B95"/></linearGradient><clipPath id="clip0"><rect width="400" height="400" fill="#fff"/></clipPath></defs></svg>