<svg xmlns="http://www.w3.org/2000/svg" xmlns:xlink="http://www.w3.org/1999/xlink" id="Layer_1" x="0" y="0" version="1.1" viewBox="0 0 3000 2500" xml:space="preserve" style="enable-background:new 0 0 3000 2500"><style type="text/css">.st0{fill:url(#SVGID_1_)}.st1{opacity:.5}.st2{fill:#05479e}.st3{fill:#fdf7fa}.st4{fill:#fff}.st5{fill:url(#SVGID_2_)}.st6{fill:url(#SVGID_3_)}</style><g><linearGradient id="SVGID_1_" x1="-917.951" x2="-2952.681" y1="101.377" y2="2374.41" gradientUnits="userSpaceOnUse"><stop offset="0" style="stop-color:#212e59"/><stop offset=".081" style="stop-color:#26315f"/><stop offset=".685" style="stop-color:#4b4486"/><stop offset="1" style="stop-color:#594b95"/></linearGradient><path d="M-1381.53,0h-404.12h-720.27h-8.77c-359.28,0-650.53,291.25-650.53,650.53v8.77v494.03v687.36 c0,364.13,295.18,659.31,659.31,659.31h1124.39c364.12,0,659.31-295.18,659.31-659.31V659.31C-722.23,295.18-1017.41,0-1381.53,0z" class="st0"/><g><g class="st1"><path d="M-1486.26,1403.56c0,0,86.75-92.38,115.62-120.9c28.87-28.51,162.38-160.39,82.76-350.5 c-79.55-190.04-236.38-185.34-395.63-185.34c-17.82-261.33-266.1-289.84-293.4-291.05c-27.37-1.21-367.11-1.21-423,0 c-55.82,1.21-98.59-2.35-116.41,16.61c-17.82,19.03-28.51,58.24,0,86.75c28.51,28.51,355.21,295.83,355.21,295.83h358.84 c-23.81,58.24-158.04,185.34-200.81,229.32c-42.77,43.91-39.21,72.42-21.39,92.67c17.82,20.17,78.41,84.33,146.13,157.96 c67.72,73.71,109.28,127.17,90.32,243.58c-19.03,116.41-168.73,144.92-211.5,144.92c-42.77,0-198.38,0-198.38,0 s1.14-399.19,0-466.48c-1.57-87.47,5.06-108.49-8.34-119.19c-20.96-16.82-281.57-238.8-320.78-260.19 c-39.21-21.39-71.28,17.82-71.28,55.82c0,37.99-2.35,776.99,0,823.33c2.35,46.33,45.12,71.28,64.37,71.28 c19.25,0,239.8,0,239.8,0s-2.42,144.92,0,178.21c2.35,33.29,59.38,52.25,80.76,52.25s615.39,1.21,661.73,0 c46.33-1.14,124.75-14.26,215.06-106.36c90.32-92.1,79.62-234.59,49.9-310.66C-1316.39,1565.44-1486.26,1403.56-1486.26,1403.56z M-2292.98,1723.41h-203.16v-686.68l203.16,166.3V1723.41z M-2125.11,740.9l-216.56-176.43c0,0,355.56,0,376.95,0 c21.39,0,164.81,33,172.79,176.43C-1834.7,740.9-2125.11,740.9-2125.11,740.9z M-1439.93,1906.4 c-51.68,47.76-127.46,46.33-205.87,45.48c-78.41-0.93-547.03,0-547.03,0v-123.89c0,0,180.85,0,221.84,0 c40.99,0,150.55-18.68,224.54-121.18c73.99-102.51,83.76-203.16,49.9-295.83c-33.86-92.67-216.56-266.46-216.56-266.46 s135.44-139.86,172.01-191.54c36.57-51.68,48.12-98.02,48.12-98.02s144.35,0,175.5,0c31.22,0,135.44,69.5,145.28,163.1 c9.84,93.52-28.51,126.46-58.81,163.95c-30.3,37.35-169.3,181.77-176.43,197.74c-7.13,16.11-7.13,44.62,20.53,73.99 c27.59,29.37,176.36,172.86,199.59,228.11C-1364.22,1737.1-1367.22,1839.25-1439.93,1906.4z" class="st2"/></g><g><path d="M-1498.88,1396.64c0,0,86.75-92.38,115.62-120.9c28.87-28.51,162.38-160.39,82.76-350.5 c-79.55-190.04-236.38-185.34-395.63-185.34c-17.82-261.33-266.1-289.84-293.4-291.05c-27.37-1.21-367.11-1.21-423,0 c-55.82,1.21-98.59-2.35-116.41,16.61c-17.82,19.03-28.51,58.24,0,86.75c28.51,28.51,355.21,295.83,355.21,295.83h358.84 c-23.81,58.24-158.04,185.34-200.81,229.32c-42.77,43.91-39.21,72.42-21.39,92.67c17.82,20.17,78.41,84.33,146.13,157.96 c67.72,73.71,109.28,127.17,90.32,243.58c-19.03,116.41-168.73,144.92-211.5,144.92s-198.38,0-198.38,0s1.14-399.19,0-466.48 c-1.57-87.47,5.06-108.49-8.34-119.19c-20.96-16.82-281.57-238.8-320.78-260.19c-39.21-21.39-71.28,17.82-71.28,55.82 c0,37.99-2.35,776.99,0,823.33c2.35,46.33,45.12,71.28,64.37,71.28c19.25,0,239.8,0,239.8,0s-2.42,144.92,0,178.21 c2.35,33.29,59.38,52.25,80.76,52.25c21.39,0,615.39,1.21,661.73,0c46.33-1.14,124.75-14.26,215.06-106.36 s79.62-234.59,49.9-310.66C-1329.01,1558.52-1498.88,1396.64-1498.88,1396.64z M-2305.6,1716.49h-203.16v-686.68l203.16,166.3 V1716.49z M-2137.73,733.98l-216.56-176.43c0,0,355.56,0,376.95,0s164.81,33,172.79,176.43 C-1847.31,733.98-2137.73,733.98-2137.73,733.98z M-1452.54,1899.47c-51.68,47.76-127.46,46.33-205.87,45.48 c-78.41-0.93-547.03,0-547.03,0v-123.89c0,0,180.85,0,221.84,0c40.99,0,150.55-18.68,224.54-121.18 c73.99-102.51,83.76-203.16,49.9-295.83c-33.86-92.67-216.56-266.46-216.56-266.46s135.44-139.86,172.01-191.54 c36.57-51.68,48.12-98.02,48.12-98.02s144.35,0,175.5,0c31.22,0,135.44,69.5,145.28,163.1c9.84,93.52-28.51,126.46-58.81,163.95 c-30.3,37.35-169.3,181.77-176.43,197.74c-7.13,16.11-7.13,44.62,20.53,73.99c27.59,29.37,176.36,172.86,199.59,228.11 C-1376.84,1730.18-1379.84,1832.32-1452.54,1899.47z" class="st3"/></g></g></g><g><path d="M2054.94,0h-404.12H930.55h-8.77C562.5,0,271.25,291.25,271.25,650.53v8.77v494.03v687.36 c0,364.13,295.18,659.31,659.31,659.31h1124.39c364.12,0,659.31-295.18,659.31-659.31V659.31C2714.25,295.18,2419.07,0,2054.94,0z" class="st4"/><g class="st1"><linearGradient id="SVGID_2_" x1="2152.877" x2="778.058" y1="430.862" y2="2117.306" gradientUnits="userSpaceOnUse"><stop offset="0" style="stop-color:#212e59"/><stop offset=".081" style="stop-color:#26315f"/><stop offset=".685" style="stop-color:#4b4486"/><stop offset="1" style="stop-color:#594b95"/></linearGradient><path d="M1950.58,1409.62c0,0,86.75-92.38,115.62-120.9c28.87-28.51,162.39-160.39,82.76-350.5 c-79.55-190.04-236.38-185.34-395.63-185.34c-17.82-261.33-266.1-289.84-293.4-291.05c-27.37-1.21-367.11-1.21-423,0 c-55.82,1.21-98.59-2.35-116.41,16.61c-17.82,19.03-28.51,58.24,0,86.75s355.21,295.83,355.21,295.83h358.84 c-23.81,58.24-158.04,185.34-200.81,229.32c-42.77,43.91-39.21,72.42-21.39,92.67c17.82,20.17,78.41,84.33,146.13,157.96 c67.72,73.71,109.28,127.17,90.32,243.58c-19.03,116.41-168.73,144.92-211.5,144.92c-42.77,0-198.38,0-198.38,0 s1.14-399.19,0-466.48c-1.57-87.47,5.06-108.49-8.34-119.19c-20.96-16.82-281.57-238.8-320.78-260.19 c-39.21-21.39-71.28,17.82-71.28,55.82c0,37.99-2.35,776.99,0,823.33c2.35,46.33,45.12,71.28,64.37,71.28c19.25,0,239.8,0,239.8,0 s-2.42,144.92,0,178.21c2.35,33.29,59.38,52.25,80.76,52.25s615.39,1.21,661.73,0c46.33-1.14,124.75-14.26,215.06-106.36 c90.32-92.1,79.62-234.59,49.9-310.66C2120.45,1571.51,1950.58,1409.62,1950.58,1409.62z M1143.86,1729.47H940.7V1042.8 l203.16,166.3V1729.47z M1311.74,746.97l-216.56-176.43c0,0,355.56,0,376.95,0s164.81,33,172.79,176.43 C1602.15,746.97,1311.74,746.97,1311.74,746.97z M1996.92,1912.46c-51.68,47.76-127.46,46.33-205.87,45.48 c-78.41-0.93-547.03,0-547.03,0v-123.89c0,0,180.85,0,221.84,0c40.99,0,150.55-18.68,224.54-121.18 c73.99-102.51,83.76-203.16,49.9-295.83c-33.86-92.67-216.56-266.46-216.56-266.46s135.44-139.86,172.01-191.54 c36.57-51.68,48.12-98.02,48.12-98.02s144.35,0,175.5,0c31.22,0,135.44,69.5,145.28,163.1c9.84,93.52-28.51,126.46-58.81,163.95 c-30.3,37.35-169.3,181.77-176.43,197.74c-7.13,16.11-7.13,44.62,20.53,73.99c27.59,29.37,176.36,172.86,199.59,228.11 C2072.62,1743.16,2069.63,1845.31,1996.92,1912.46z" class="st5"/></g><g><linearGradient id="SVGID_3_" x1="2139.892" x2="765.074" y1="417.877" y2="2104.321" gradientUnits="userSpaceOnUse"><stop offset="0" style="stop-color:#212e59"/><stop offset=".081" style="stop-color:#26315f"/><stop offset=".685" style="stop-color:#4b4486"/><stop offset="1" style="stop-color:#594b95"/></linearGradient><path d="M1937.6,1396.64c0,0,86.75-92.38,115.62-120.9c28.87-28.51,162.39-160.39,82.76-350.5 c-79.55-190.04-236.38-185.34-395.63-185.34c-17.82-261.33-266.1-289.84-293.4-291.05c-27.37-1.21-367.11-1.21-423,0 c-55.82,1.21-98.59-2.35-116.41,16.61c-17.82,19.03-28.51,58.24,0,86.75s355.21,295.83,355.21,295.83h358.84 c-23.81,58.24-158.04,185.34-200.81,229.32c-42.77,43.91-39.21,72.42-21.39,92.67c17.82,20.17,78.41,84.33,146.13,157.96 c67.72,73.71,109.28,127.17,90.32,243.58c-19.03,116.41-168.73,144.92-211.5,144.92c-42.77,0-198.38,0-198.38,0 s1.14-399.19,0-466.48c-1.57-87.47,5.06-108.49-8.34-119.19c-20.96-16.82-281.57-238.8-320.78-260.19 c-39.21-21.39-71.28,17.82-71.28,55.82c0,37.99-2.35,776.99,0,823.33c2.35,46.33,45.12,71.28,64.37,71.28c19.25,0,239.8,0,239.8,0 s-2.42,144.92,0,178.21c2.35,33.29,59.38,52.25,80.76,52.25s615.39,1.21,661.73,0c46.33-1.14,124.75-14.26,215.06-106.36 c90.32-92.1,79.62-234.59,49.9-310.66C2107.47,1558.52,1937.6,1396.64,1937.6,1396.64z M1130.88,1716.49H927.72v-686.68 l203.16,166.3V1716.49z M1298.75,733.98l-216.56-176.43c0,0,355.56,0,376.95,0s164.81,33,172.79,176.43 C1589.16,733.98,1298.75,733.98,1298.75,733.98z M1983.93,1899.47c-51.68,47.76-127.46,46.33-205.87,45.48 c-78.41-0.93-547.03,0-547.03,0v-123.89c0,0,180.85,0,221.84,0c40.99,0,150.55-18.68,224.54-121.18s83.76-203.16,49.9-295.83 c-33.86-92.67-216.56-266.46-216.56-266.46s135.44-139.86,172.01-191.54c36.57-51.68,48.12-98.02,48.12-98.02s144.35,0,175.5,0 c31.22,0,135.44,69.5,145.28,163.1c9.84,93.52-28.51,126.46-58.81,163.95c-30.3,37.35-169.3,181.77-176.43,197.74 c-7.13,16.11-7.13,44.62,20.53,73.99c27.59,29.37,176.36,172.86,199.59,228.11C2059.64,1730.18,2056.64,1832.32,1983.93,1899.47z" class="st6"/></g></g></svg>