<svg id="visual" viewBox="0 0 900 600" width="900" height="600" xmlns="http://www.w3.org/2000/svg" xmlns:xlink="http://www.w3.org/1999/xlink" version="1.1"><path d="M0 488L56 488L56 492L113 492L113 506L169 506L169 520L225 520L225 500L281 500L281 516L338 516L338 520L394 520L394 499L450 499L450 520L506 520L506 511L563 511L563 493L619 493L619 505L675 505L675 492L731 492L731 495L788 495L788 484L844 484L844 485L900 485L900 507L900 601L900 601L844 601L844 601L788 601L788 601L731 601L731 601L675 601L675 601L619 601L619 601L563 601L563 601L506 601L506 601L450 601L450 601L394 601L394 601L338 601L338 601L281 601L281 601L225 601L225 601L169 601L169 601L113 601L113 601L56 601L56 601L0 601Z" fill="#08dc90"></path><path d="M0 542L56 542L56 525L113 525L113 519L169 519L169 510L225 510L225 511L281 511L281 521L338 521L338 510L394 510L394 543L450 543L450 537L506 537L506 539L563 539L563 528L619 528L619 537L675 537L675 512L731 512L731 540L788 540L788 509L844 509L844 515L900 515L900 512L900 601L900 601L844 601L844 601L788 601L788 601L731 601L731 601L675 601L675 601L619 601L619 601L563 601L563 601L506 601L506 601L450 601L450 601L394 601L394 601L338 601L338 601L281 601L281 601L225 601L225 601L169 601L169 601L113 601L113 601L56 601L56 601L0 601Z" fill="#09c681"></path><path d="M0 541L56 541L56 563L113 563L113 532L169 532L169 564L225 564L225 562L281 562L281 537L338 537L338 563L394 563L394 534L450 534L450 542L506 542L506 537L563 537L563 563L619 563L619 544L675 544L675 534L731 534L731 561L788 561L788 557L844 557L844 539L900 539L900 557L900 601L900 601L844 601L844 601L788 601L788 601L731 601L731 601L675 601L675 601L619 601L619 601L563 601L563 601L506 601L506 601L450 601L450 601L394 601L394 601L338 601L338 601L281 601L281 601L225 601L225 601L169 601L169 601L113 601L113 601L56 601L56 601L0 601Z" fill="#09b073"></path><path d="M0 588L56 588L56 579L113 579L113 585L169 585L169 582L225 582L225 589L281 589L281 578L338 578L338 566L394 566L394 585L450 585L450 569L506 569L506 573L563 573L563 565L619 565L619 571L675 571L675 585L731 585L731 588L788 588L788 574L844 574L844 556L900 556L900 569L900 601L900 601L844 601L844 601L788 601L788 601L731 601L731 601L675 601L675 601L619 601L619 601L563 601L563 601L506 601L506 601L450 601L450 601L394 601L394 601L338 601L338 601L281 601L281 601L225 601L225 601L169 601L169 601L113 601L113 601L56 601L56 601L0 601Z" fill="#099b65"></path></svg>